# xmcd
#
# Track frame offsets:
# 150
# 20240
# 34505
# 50172
# 57827
# 72142
# 88832
# 107897
# 124810
# 136190
# 147672
# 165885
# 174102
# 192027
# 210100
#
# Disc length: 2904 seconds
#
#
# Revision: 11
# Processed by: cddbd v1.5.1PL0 Copyright (c) Steve Scherf et al.
# Submitted via: FreeRIP 2.90 
#
DISCID=cc0b560f
DTITLE=Tom Waits - Alice
DYEAR=2002
DGENRE=Blues
TTITLE0=Alice
TTITLE1=Everything You Can Think
TTITLE2=Flower's Grave
TTITLE3=No One Knows I'm Gone
TTITLE4=Kommienezuspadt
TTITLE5=Poor Edward
TTITLE6=Table Top Joe
TTITLE7=Lost In The Harbour
TTITLE8=We're All Mad Here
TTITLE9=Watch Her Disappear
TTITLE10=Reeperbahn
TTITLE11=I'm Still Here
TTITLE12=Fish and Bird
TTITLE13=Barcarolle
TTITLE14=Fawn
EXTD=YEAR: 2002
EXTT0=
EXTT1=
EXTT2=
EXTT3=
EXTT4=
EXTT5=
EXTT6=
EXTT7=
EXTT8=
EXTT9=
EXTT10=
EXTT11=
EXTT12=
EXTT13=
EXTT14=
PLAYORDER=
